<svg width="63" height="29" viewBox="0 0 63 29" fill="none" xmlns="http://www.w3.org/2000/svg">
<g clip-path="url(#clip0)">
<mask id="mask0" mask-type="alpha" maskUnits="userSpaceOnUse" x="0" y="7" width="22" height="22">
<path d="M0 7.40234H21.1275V28.5174H0V7.40234Z" fill="white"/>
</mask>
<g mask="url(#mask0)">
<path fill-rule="evenodd" clip-rule="evenodd" d="M10.5641 11.7711C7.14908 11.7711 4.37141 14.5477 4.37141 17.9601C4.37141 21.3726 7.14908 24.1492 10.5641 24.1492C13.9786 24.1492 16.7569 21.3726 16.7569 17.9601C16.7569 14.5477 13.9786 11.7711 10.5641 11.7711ZM10.5641 28.5174C4.73919 28.5174 0 23.7816 0 17.9601C0 12.1387 4.73919 7.40234 10.5641 7.40234C16.3891 7.40234 21.1277 12.1387 21.1277 17.9601C21.1277 23.7816 16.3891 28.5174 10.5641 28.5174Z" fill="#1E1D28"/>
</g>
<mask id="mask1" mask-type="alpha" maskUnits="userSpaceOnUse" x="44" y="0" width="19" height="29">
<path d="M44.832 0.000488281H62.7246V28.5177H44.832V0.000488281Z" fill="white"/>
</mask>
<g mask="url(#mask1)">
<path fill-rule="evenodd" clip-rule="evenodd" d="M59.6353 22.4649C58.5263 23.5081 57.0347 24.149 55.3956 24.149C51.9811 24.149 49.1631 21.3725 49.1631 17.96V0.000488281L44.832 2.42709V17.96C44.832 23.7815 49.5712 28.5178 55.3956 28.5178C58.2403 28.5178 60.8238 27.3862 62.7246 25.5524L59.6353 22.4649Z" fill="#1E1D28"/>
</g>
<path fill-rule="evenodd" clip-rule="evenodd" d="M55.3964 7.40915H40.1782L34.863 21.0044L30.6698 10.209H27.2031L23.0292 20.9545L20.5018 14.3804L20.5012 14.3792C19.0307 10.3151 15.1315 7.40234 10.5643 7.40234C5.23367 7.40234 0.812316 11.3684 0.100586 16.5029L4.37153 17.9601C4.37153 14.5471 7.14921 11.7711 10.5643 11.7711C13.1126 11.7711 15.3063 13.318 16.2553 15.5211C16.2581 15.5279 16.2626 15.5335 16.2655 15.5403L16.3693 15.8058L21.297 28.5174H24.737L28.9359 17.7066L33.1359 28.5174H36.5759L43.0785 11.7751L43.0757 11.7711H55.3964V7.40915Z" fill="#1E1D28"/>
<mask id="mask2" mask-type="alpha" maskUnits="userSpaceOnUse" x="0" y="0" width="5" height="21">
<path d="M0 0.000488281H4.37419V20.3087H0V0.000488281Z" fill="white"/>
</mask>
<g mask="url(#mask2)">
<path fill-rule="evenodd" clip-rule="evenodd" d="M4.37424 0.000488281H0V17.9606C0 17.9606 0.831487 20.938 2.34405 20.1875C3.85662 19.4371 4.37141 17.9606 4.37141 17.9606L4.37424 0.000488281Z" fill="#1E1D28"/>
</g>
</g>
<defs>
<clipPath id="clip0">
<rect width="63" height="28.9286" fill="white"/>
</clipPath>
</defs>
</svg>
